<svg xmlns="http://www.w3.org/2000/svg" viewBox="0 0 279.99999999999994 254.2145133513469" preserveAspectRatio="xMidYMid meet" class="css-116ckqy" id="ehechgee"><defs id="SvgjsDefs1001"/><g id="SvgjsG1007" featurekey="mugSzh-0" transform="matrix(2.0714285714285716,0,0,2.0714285714285716,36.92857142857143,-20.714285714285715)" fill="#39e991"><path xmlns="http://www.w3.org/2000/svg" d="M50,10L15,30v40l35,20l34.99-19.994L85,69.99V30L50,10z M50,17.699L74.89,31.92l-6.732,3.848L50,25.397L31.846,35.771  l-6.738-3.851L50,17.699z M64.795,41.546v13.059L53.369,48.08V35.02L64.795,41.546z M46.631,35.02v13.057l-11.423,6.527V41.546  L46.631,35.02z M46.631,80.377L21.735,66.152v-28.46l6.734,3.848v20.761L46.631,72.68V80.377z M38.571,60.377l11.426-6.529  l11.429,6.529L50,66.904L38.571,60.377z M78.265,66.152L53.369,80.377V72.68L71.53,62.305V41.54l6.734-3.848V66.152z"/></g><g id="SvgjsG1008" featurekey="PPkF4s-0" transform="matrix(4.578155668714373,0,0,4.578155668714373,-7.050361738212095,161.36952197838832)" fill="#ffffff"><path d="M11.87 11.22 q-0.51 0.8 -1.33 1.14 q1 0.34 1.72 1.3 t0.72 2.1 q0 2.26 -1.44 3.25 t-3.68 0.99 l-6.32 0 l0 -14.62 l6.08 0 q4.76 0 4.76 4.06 q0 0.98 -0.51 1.78 z M7.68 11.18 q0.78 0 1.15 -0.48 t0.37 -1.14 q0 -0.58 -0.44 -1.01 t-1.06 -0.43 l-2.98 0 l0 3.06 l2.96 0 z M9.3 16.78 q0.52 -0.48 0.52 -1.18 t-0.52 -1.18 t-1.5 -0.48 l-3.08 0 l0 3.32 l3.14 0 q0.92 0 1.44 -0.48 z M17.89 19.49 q-1.37 -0.77 -2.17 -2.09 t-0.8 -2.88 q0 -1.54 0.8 -2.86 t2.17 -2.09 t2.99 -0.77 t3 0.77 t2.19 2.09 t0.81 2.86 q0 1.56 -0.81 2.88 t-2.19 2.09 t-3 0.77 t-2.99 -0.77 z M19.36 11.83 q-0.7 0.41 -1.1 1.12 t-0.4 1.57 q0 0.9 0.39 1.61 t1.08 1.12 t1.55 0.41 q0.84 0 1.53 -0.41 t1.09 -1.13 t0.4 -1.6 q0 -0.86 -0.4 -1.57 t-1.09 -1.12 t-1.53 -0.41 q-0.82 0 -1.52 0.41 z M31.770000000000003 19.49 q-1.37 -0.77 -2.17 -2.09 t-0.8 -2.88 q0 -1.54 0.8 -2.86 t2.17 -2.09 t2.99 -0.77 t3 0.77 t2.19 2.09 t0.81 2.86 q0 1.56 -0.81 2.88 t-2.19 2.09 t-3 0.77 t-2.99 -0.77 z M33.24 11.83 q-0.7 0.41 -1.1 1.12 t-0.4 1.57 q0 0.9 0.39 1.61 t1.08 1.12 t1.55 0.41 q0.84 0 1.53 -0.41 t1.09 -1.13 t0.4 -1.6 q0 -0.86 -0.4 -1.57 t-1.09 -1.12 t-1.53 -0.41 q-0.82 0 -1.52 0.41 z M46.9 16.08 q0 0.7 0.24 1.17 t1.12 0.47 q0.4 0 0.76 -0.04 l0 2.52 q-0.72 0.08 -1.34 0.08 q-1.28 0 -2.07 -0.21 t-1.23 -0.81 t-0.44 -1.72 l0 -6.1 l-1.34 0 l0 -2.62 l1.34 0 l0 -2.94 l2.96 0 l0 2.94 l2.2 0 l0 2.62 l-2.2 0 l0 4.64 z M59.739999999999995 18.9 q-0.38 0.52 -1.31 0.93 t-2.03 0.41 q-1.7 0 -2.95 -0.76 t-1.91 -2.07 t-0.66 -2.91 t0.66 -2.91 t1.91 -2.07 t2.95 -0.76 q1.14 0 2.01 0.39 t1.33 0.99 l0 -1.14 l2.96 0 l0 11 l-2.96 0 l0 -1.1 z M59.03999999999999 12.25 q-0.82 -0.87 -2.2 -0.87 q-1.4 0 -2.21 0.87 t-0.81 2.25 q0 1.34 0.83 2.22 t2.19 0.88 q1.4 0 2.21 -0.83 t0.81 -2.27 q0 -1.38 -0.82 -2.25 z"/></g></svg>