<?xml version="1.0" standalone="no"?>
<!DOCTYPE svg PUBLIC "-//W3C//DTD SVG 20010904//EN"
 "http://www.w3.org/TR/2001/REC-SVG-20010904/DTD/svg10.dtd">
<svg version="1.0" xmlns="http://www.w3.org/2000/svg"
 width="560.000000pt" height="560.000000pt" viewBox="0 0 560.000000 560.000000"
 preserveAspectRatio="xMidYMid meet">
<metadata>
Created by potrace 1.11, written by Peter Selinger 2001-2013
</metadata>
<g transform="translate(0.000000,560.000000) scale(0.100000,-0.100000)"
fill="#000000" stroke="none">
<path d="M2788 5326 c-26 -14 -216 -121 -250 -141 -9 -5 -34 -19 -55 -31 -21
-12 -225 -128 -453 -259 -228 -131 -431 -247 -450 -257 -19 -10 -62 -35 -95
-54 -33 -19 -68 -38 -77 -41 -10 -3 -18 -9 -18 -14 0 -5 -7 -9 -15 -9 -11 0
-15 -12 -15 -42 -2 -232 -1 -1621 2 -1622 7 -5 222 -129 256 -147 87 -48 289
-163 312 -178 28 -17 38 -23 125 -71 33 -18 72 -41 87 -52 14 -10 28 -18 31
-18 3 0 108 -59 233 -131 126 -73 245 -140 264 -151 19 -10 57 -31 85 -47 45
-25 81 -30 95 -11 7 9 191 110 201 110 5 0 9 4 9 9 0 5 8 11 18 14 9 4 37 18
62 33 25 15 61 36 80 47 19 10 65 37 102 58 36 22 69 39 73 39 3 0 11 5 18 10
7 6 158 94 337 195 179 102 336 191 350 200 14 8 55 32 93 52 l67 37 0 826 0
826 -30 22 c-16 12 -32 22 -35 22 -3 0 -22 11 -43 23 -20 13 -57 35 -82 49
-191 106 -237 133 -251 145 -9 7 -19 10 -22 6 -4 -3 -7 -1 -7 5 0 7 -4 12 -8
12 -5 0 -80 41 -168 91 -87 50 -184 105 -214 122 -30 16 -66 38 -80 47 -14 10
-35 21 -47 24 -13 4 -23 12 -23 17 0 5 -5 9 -10 9 -9 0 -288 156 -396 221 -26
16 -33 17 -56 5z m216 -415 c105 -60 207 -119 226 -130 19 -12 52 -29 73 -38
20 -9 37 -20 37 -25 0 -4 4 -8 10 -8 5 0 39 -18 75 -40 36 -22 67 -40 69 -40
3 0 39 -20 80 -45 42 -25 79 -45 81 -45 3 0 28 -15 57 -33 29 -18 70 -41 90
-52 l37 -19 -27 -19 c-15 -10 -36 -22 -47 -28 -11 -5 -27 -13 -35 -19 -59 -38
-154 -90 -164 -90 -6 0 -24 7 -41 16 -16 9 -46 25 -65 36 -19 10 -48 27 -65
37 -16 10 -50 29 -75 43 -25 14 -74 42 -110 63 -36 21 -81 46 -100 57 -19 11
-94 53 -165 94 -129 73 -155 84 -155 64 0 -5 -5 -10 -10 -10 -8 0 -107 -55
-325 -180 -16 -9 -50 -28 -75 -42 -25 -14 -90 -51 -145 -83 -168 -98 -182
-104 -191 -95 -5 4 -36 23 -69 41 -33 17 -68 39 -77 47 -10 8 -18 11 -18 6 0
-5 -4 -4 -8 1 -4 6 -24 19 -44 30 -21 11 -38 23 -38 26 0 7 95 69 105 69 2 0
74 41 159 90 85 50 160 90 165 90 6 0 11 4 11 9 0 5 8 11 18 14 9 3 40 19 67
35 48 29 208 120 290 167 22 12 56 31 75 43 62 36 125 71 129 72 2 0 90 -49
195 -109z m-334 -878 l0 -268 -33 -19 c-35 -20 -135 -78 -207 -118 -25 -14
-85 -49 -134 -76 -49 -28 -92 -49 -95 -47 -5 2 -6 401 -2 511 1 17 23 34 93
73 50 28 95 51 100 51 4 0 8 5 8 10 0 6 4 10 9 10 5 0 62 31 128 69 65 38 121
70 126 70 4 1 7 -119 7 -266z m323 247 c14 -11 27 -20 30 -20 3 0 61 -32 129
-71 121 -70 214 -122 253 -143 19 -11 20 -21 20 -278 0 -304 7 -283 -84 -228
-25 16 -66 40 -91 53 -25 14 -61 34 -80 45 -19 11 -57 33 -85 47 -27 15 -57
33 -66 41 -9 8 -19 11 -22 7 -4 -3 -7 -2 -7 4 0 6 -9 13 -20 16 -19 5 -20 14
-20 276 0 149 4 271 9 271 4 0 20 -9 34 -20z m-1327 -99 c5 -5 32 -22 59 -37
28 -15 82 -46 120 -69 l70 -41 0 -427 c1 -234 3 -428 5 -431 11 -10 603 -346
611 -346 5 0 9 -3 9 -7 0 -5 22 -18 48 -31 88 -44 83 -30 80 -205 l-3 -156
-85 49 c-47 27 -92 53 -100 57 -8 3 -48 26 -88 50 -41 24 -78 43 -83 43 -5 0
-9 5 -9 10 0 6 -5 10 -11 10 -5 0 -56 26 -112 59 -56 32 -124 71 -152 86 -27
15 -54 31 -60 35 -5 4 -30 18 -55 32 -112 62 -165 92 -170 97 -3 4 -26 17 -52
31 -43 22 -48 28 -48 60 -1 47 -1 1032 0 1093 0 46 7 56 26 38z m2315 -497 c0
-275 -1 -537 -1 -584 l0 -85 -62 -35 c-35 -18 -69 -40 -76 -47 -7 -7 -22 -13
-32 -13 -10 0 -20 -4 -22 -8 -4 -10 -286 -172 -299 -172 -5 0 -9 -4 -9 -8 0
-4 -12 -13 -27 -19 -16 -7 -48 -24 -73 -39 -59 -35 -379 -218 -407 -233 l-23
-12 0 159 0 158 332 189 c183 105 341 195 353 202 11 7 30 17 43 22 12 6 22
16 23 23 0 7 1 203 1 434 l1 421 66 37 c36 20 97 54 136 75 38 22 71 38 73 37
1 -2 3 -228 3 -502z m-1102 -198 c31 -19 74 -44 96 -56 22 -12 100 -56 173
-98 l133 -76 -43 -26 c-24 -15 -74 -44 -113 -65 -38 -21 -78 -45 -87 -53 -10
-8 -18 -11 -18 -7 0 4 -8 1 -17 -7 -10 -8 -45 -30 -77 -47 -32 -18 -68 -39
-80 -46 -28 -20 -49 -19 -80 6 -14 11 -26 17 -26 13 0 -4 -8 -1 -17 7 -10 8
-27 19 -38 25 -54 30 -312 179 -328 189 -15 11 -2 21 105 82 68 38 130 73 138
76 8 4 56 32 105 62 50 30 96 54 104 55 7 0 39 -15 70 -34z"/>
<path d="M2 955 l3 -669 305 -1 c333 0 392 4 490 36 171 57 251 174 245 362
-4 113 -77 230 -177 282 l-36 19 38 27 c79 58 120 139 121 243 2 169 -72 285
-214 335 -87 30 -124 33 -470 35 l-307 1 2 -670z m620 404 c70 -29 98 -121 59
-197 -32 -62 -47 -66 -228 -68 l-161 -2 -1 139 -2 138 48 3 c90 6 258 -2 285
-13z m26 -531 c41 -10 100 -62 103 -91 11 -91 -11 -142 -74 -177 -37 -21 -53
-23 -212 -24 l-173 -1 0 152 -1 152 157 0 c86 0 176 -5 200 -11z"/>
<path d="M3882 1456 c0 -67 0 -127 -1 -133 -1 -9 -20 -13 -61 -13 -46 0 -60
-3 -61 -15 0 -8 0 -46 0 -85 0 -38 0 -86 0 -105 l1 -35 60 0 60 0 1 -32 c0
-18 1 -163 3 -323 3 -321 5 -334 68 -390 18 -17 53 -37 78 -44 45 -14 276 -26
303 -15 11 4 14 29 13 117 l-1 112 -55 1 c-74 1 -92 8 -115 46 -18 30 -20 54
-21 281 l-1 247 98 0 c69 0 98 4 101 13 2 6 4 59 4 117 l-1 105 -100 5 -101 5
-1 110 c0 61 -1 120 -2 131 -1 21 -5 22 -135 21 l-134 0 0 -121z"/>
<path d="M4978 1314 c-2 -1 -24 -5 -50 -8 -135 -16 -284 -121 -348 -246 -35
-69 -62 -186 -62 -270 0 -291 183 -501 457 -524 117 -10 249 26 322 88 l32 27
3 -48 3 -47 130 -1 130 0 3 503 c2 442 0 502 -13 503 -8 0 -44 0 -80 0 -36 0
-90 0 -119 0 l-55 -1 -3 -46 -3 -46 -30 26 c-45 39 -129 75 -188 81 -96 10
-126 12 -129 9z m225 -275 c92 -47 143 -153 134 -276 -12 -163 -111 -256 -272
-256 -120 0 -203 53 -252 159 -24 53 -32 139 -19 203 15 68 84 155 144 180 79
33 190 29 265 -10z"/>
<path d="M1670 1304 c-168 -53 -226 -85 -305 -170 -126 -134 -170 -325 -116
-501 27 -90 108 -201 191 -264 128 -96 328 -131 486 -86 168 48 311 182 369
347 30 82 28 234 -3 319 -56 149 -159 256 -311 320 -29 12 -63 25 -75 28 -29
7 -217 12 -236 7z m195 -251 c109 -37 185 -156 179 -281 -7 -164 -126 -274
-290 -268 -160 6 -272 140 -257 307 16 187 192 302 368 242z"/>
<path d="M2895 1290 c-131 -33 -244 -116 -319 -235 -192 -300 -16 -699 345
-781 47 -11 175 -12 229 -3 97 18 217 83 290 158 60 62 125 169 133 218 1 10
5 23 8 28 11 21 10 156 -1 212 -39 190 -204 357 -402 407 -78 19 -199 18 -283
-4z m242 -238 c57 -18 126 -81 153 -139 32 -67 33 -190 2 -249 -55 -106 -128
-156 -233 -160 -89 -4 -148 17 -204 70 -62 60 -79 100 -89 211 -6 70 49 185
109 230 70 52 174 67 262 37z"/>
</g>
</svg>
